<svg width="256" height="262" viewBox="0 0 256 262" fill="none" xmlns="http://www.w3.org/2000/svg">
<path d="M130.303 133.04C131.247 132.957 131.756 134.706 130.303 135.619C129.02 136.592 126.02 135.885 125.164 133.04C124.145 130.353 126.103 126.149 130.303 125.304C134.335 124.252 139.793 127.431 140.581 133.04C141.677 138.464 137.248 145.184 130.303 145.935C123.524 147.07 115.6 141.391 114.885 133.04C113.701 124.861 120.622 115.666 130.303 114.988C139.817 113.779 150.237 121.934 150.859 133.04C152.112 143.99 142.734 155.642 130.303 156.251C118.023 157.543 105.18 146.908 104.607 133.04C103.301 119.36 115.106 105.188 130.303 104.672C145.333 103.306 160.638 116.417 161.137 133.04C162.532 149.482 148.24 166.125 130.303 166.567C112.536 168.001 94.7399 152.419 94.3289 133.04C92.8609 113.843 109.619 94.7249 130.303 94.3559C150.815 92.8289 171.077 110.916 171.415 133.04C172.957 154.983 153.732 176.602 130.303 176.882C107.045 178.479 84.3159 157.926 84.0509 133.04C82.4359 108.322 104.133 84.2669 130.303 84.0409C156.301 82.3899 181.517 105.379 181.693 133.04C183.396 160.515 159.213 187.046 130.303 187.198C101.563 188.922 73.8758 163.457 73.7731 133.04C71.9964 102.815 98.6459 73.7935 130.303 73.7247C161.788 71.9023 191.942 99.8919 191.971 133.04C193.821 166.021 164.705 197.524 130.303 197.514C96.0769 199.4 63.4363 168.964 63.495 133.04C61.5568 97.3039 93.1639 63.3304 130.303 63.409C167.294 61.4441 202.362 94.3759 202.249 133.04C204.241 171.528 170.211 207.997 130.303 207.83C90.5609 209.878 53.0358 174.466 53.2169 133.04C51.1564 91.7969 87.6489 52.8525 130.303 53.0932C172.78 50.9662 212.801 88.8739 212.527 133.04C214.676 177.054 175.697 218.455 130.303 218.145C85.0789 220.341 42.5913 179.977 42.9388 133.04C40.7168 86.2809 82.1619 42.3796 130.303 42.7775C178.272 40.4933 223.226 83.3579 222.805 133.04C225.101 182.576 181.189 228.913 130.303 228.461C79.5969 230.799 32.1518 185.503 32.6608 133.04C30.2723 80.7439 76.6803 31.941 130.303 32.4617C183.758 30.0498 233.661 77.8215 233.083 133.04C235.545 188.082 186.67 239.391 130.303 238.777C74.101 241.272 21.7318 191.01 22.3827 133.04C19.8523 75.2426 71.1889 21.4632 130.303 22.146C189.24 19.5719 244.1 72.3198 243.361 133.04C245.985 193.594 192.152 249.854 130.303 249.093C68.5998 251.74 11.3117 196.517 12.1046 133.04C9.4323 69.7556 65.6827 10.9755 130.303 11.8302C194.756 9.09898 254.506 66.8132 253.639 133.04C256.385 199.096 197.668 260.332 130.303 259.408C63.1132 262.218 0.872198 202.023 1.8266 133.04C-1.0073 64.2293 60.1962 0.517283 130.303 1.51448" stroke="white" stroke-opacity="0.2" stroke-width="3" stroke-linecap="round"/>
</svg>
