<svg fill="none" height="262" viewBox="0 0 256 262" width="256" xmlns="http://www.w3.org/2000/svg"><path d="m130.303 133.04c.944-.083 1.453 1.666 0 2.579-1.283.973-4.283.266-5.139-2.579-1.019-2.687.939-6.891 5.139-7.736 4.032-1.052 9.49 2.127 10.278 7.736 1.096 5.424-3.333 12.144-10.278 12.895-6.779 1.135-14.703-4.544-15.418-12.895-1.184-8.179 5.737-17.374 15.418-18.052 9.514-1.209 19.934 6.946 20.556 18.052 1.253 10.95-8.125 22.602-20.556 23.211-12.28 1.292-25.123-9.343-25.696-23.211-1.306-13.68 10.499-27.852 25.696-28.368 15.03-1.366 30.335 11.745 30.834 28.368 1.395 16.442-12.897 33.085-30.834 33.527-17.767 1.434-35.5631-14.148-35.9741-33.527-1.468-19.197 15.2901-38.3151 35.9741-38.6841 20.512-1.527 40.774 16.5601 41.112 38.6841 1.542 21.943-17.683 43.562-41.112 43.842-23.258 1.597-45.9871-18.956-46.2521-43.842-1.615-24.718 20.0821-48.7731 46.2521-48.9991 25.998-1.651 51.214 21.3381 51.39 48.9991 1.703 27.475-22.48 54.006-51.39 54.158-28.74 1.724-56.4272-23.741-56.5299-54.158-1.7767-30.225 24.8728-59.2465 56.5299-59.3153 31.485-1.8224 61.639 26.1672 61.668 59.3153 1.85 32.981-27.266 64.484-61.668 64.474-34.2261 1.886-66.8667-28.55-66.808-64.474-1.9382-35.7361 29.6689-69.7096 66.808-69.631 36.991-1.9649 72.059 30.9669 71.946 69.631 1.992 38.488-32.038 74.957-71.946 74.79-39.7421 2.048-77.2672-33.364-77.0861-74.79-2.0605-41.2431 34.432-80.1875 77.0861-79.9468 42.477-2.127 82.498 35.7807 82.224 79.9468 2.149 44.014-36.83 85.415-82.224 85.105-45.2241 2.196-87.7117-38.168-87.3642-85.105-2.222-46.7591 39.2231-90.6604 87.3642-90.2625 47.969-2.2842 92.923 40.5804 92.502 90.2625 2.296 49.536-41.616 95.873-92.502 95.421-50.7061 2.338-98.1512-42.958-97.6422-95.421-2.3885-52.2961 44.0195-101.099 97.6422-100.5783 53.455-2.4119 103.358 45.3598 102.78 100.5783 2.462 55.042-46.413 106.351-102.78 105.737-56.202 2.495-108.5712-47.767-107.9203-105.737-2.5304-57.7974 48.8062-111.5768 107.9203-110.894 58.937-2.5741 113.797 50.1738 113.058 110.894 2.624 60.554-51.209 116.814-113.058 116.053-61.7032 2.647-118.9913-52.576-118.1984-116.053-2.6723-63.2844 53.5781-122.0645 118.1984-121.2098 64.453-2.73122 124.203 54.983 123.336 121.2098 2.746 66.056-55.971 127.292-123.336 126.368-67.1898 2.81-129.430802-57.385-128.4764-126.368-2.8339-68.8107 58.3696-132.522717 128.4764-131.52552" stroke="#fff" stroke-linecap="round" stroke-opacity=".2" stroke-width="3"/></svg>