<svg width="38" height="35" viewBox="0 0 38 35" fill="none" xmlns="http://www.w3.org/2000/svg">
<path d="M1.01431 34.7307C0.694311 34.7307 0.446311 34.6427 0.270311 34.4667C0.102311 34.2907 0.0183105 34.0427 0.0183105 33.7227V27.0627C0.0183105 26.7347 0.110311 26.4867 0.294311 26.3187C0.478311 26.1427 0.738311 26.0547 1.07431 26.0547C1.35431 26.0547 1.57431 26.1107 1.73431 26.2227C1.90231 26.3267 2.05431 26.5027 2.19031 26.7507L4.77031 31.3827H4.35031L6.91831 26.7507C7.06231 26.5027 7.21431 26.3267 7.37431 26.2227C7.54231 26.1107 7.76631 26.0547 8.04631 26.0547C8.36631 26.0547 8.61031 26.1427 8.77831 26.3187C8.95431 26.4867 9.04231 26.7347 9.04231 27.0627V33.7227C9.04231 34.0427 8.95831 34.2907 8.79031 34.4667C8.62231 34.6427 8.37431 34.7307 8.04631 34.7307C7.72631 34.7307 7.47831 34.6427 7.30231 34.4667C7.13431 34.2907 7.05031 34.0427 7.05031 33.7227V29.5947H7.30231L5.37031 32.9547C5.25831 33.1307 5.13831 33.2627 5.01031 33.3507C4.89031 33.4387 4.72631 33.4827 4.51831 33.4827C4.31831 33.4827 4.15431 33.4387 4.02631 33.3507C3.89831 33.2627 3.78231 33.1307 3.67831 32.9547L1.73431 29.5827H2.01031V33.7227C2.01031 34.0427 1.92631 34.2907 1.75831 34.4667C1.59031 34.6427 1.34231 34.7307 1.01431 34.7307Z" fill="#FF4D00"/>
<path d="M12.7118 34.6227C12.3358 34.6227 12.0478 34.5267 11.8478 34.3347C11.6558 34.1347 11.5598 33.8507 11.5598 33.4827V27.3027C11.5598 26.9347 11.6558 26.6547 11.8478 26.4627C12.0478 26.2627 12.3358 26.1627 12.7118 26.1627H16.7798C17.0678 26.1627 17.2838 26.2347 17.4278 26.3787C17.5718 26.5227 17.6438 26.7307 17.6438 27.0027C17.6438 27.2827 17.5718 27.4987 17.4278 27.6507C17.2838 27.7947 17.0678 27.8667 16.7798 27.8667H13.6718V29.4747H16.5158C16.7958 29.4747 17.0078 29.5467 17.1518 29.6907C17.3038 29.8347 17.3798 30.0467 17.3798 30.3267C17.3798 30.6067 17.3038 30.8187 17.1518 30.9627C17.0078 31.1067 16.7958 31.1787 16.5158 31.1787H13.6718V32.9187H16.7798C17.0678 32.9187 17.2838 32.9947 17.4278 33.1467C17.5718 33.2907 17.6438 33.4987 17.6438 33.7707C17.6438 34.0507 17.5718 34.2627 17.4278 34.4067C17.2838 34.5507 17.0678 34.6227 16.7798 34.6227H12.7118Z" fill="#FF4D00"/>
<path d="M20.9229 34.7307C20.5869 34.7307 20.3309 34.6427 20.1549 34.4667C19.9789 34.2907 19.8909 34.0307 19.8909 33.6867V27.1467C19.8909 26.7947 19.9789 26.5267 20.1549 26.3427C20.3309 26.1507 20.5629 26.0547 20.8509 26.0547C21.1069 26.0547 21.3069 26.1027 21.4509 26.1987C21.5949 26.2947 21.7549 26.4547 21.9309 26.6787L25.7349 31.4307H25.3989V27.0867C25.3989 26.7507 25.4829 26.4947 25.6509 26.3187C25.8269 26.1427 26.0829 26.0547 26.4189 26.0547C26.7549 26.0547 27.0069 26.1427 27.1749 26.3187C27.3509 26.4947 27.4389 26.7507 27.4389 27.0867V33.7347C27.4389 34.0387 27.3589 34.2827 27.1989 34.4667C27.0389 34.6427 26.8229 34.7307 26.5509 34.7307C26.2789 34.7307 26.0629 34.6827 25.9029 34.5867C25.7509 34.4827 25.5869 34.3227 25.4109 34.1067L21.6069 29.3427H21.9429V33.6867C21.9429 34.0307 21.8549 34.2907 21.6789 34.4667C21.5109 34.6427 21.2589 34.7307 20.9229 34.7307Z" fill="#FF4D00"/>
<path d="M33.6886 34.7547C33.0726 34.7547 32.5286 34.6787 32.0566 34.5267C31.5846 34.3667 31.1846 34.1307 30.8566 33.8187C30.5366 33.5067 30.2926 33.1187 30.1246 32.6547C29.9646 32.1827 29.8846 31.6387 29.8846 31.0227V27.1707C29.8846 26.8027 29.9806 26.5267 30.1726 26.3427C30.3646 26.1507 30.6366 26.0547 30.9886 26.0547C31.3486 26.0547 31.6206 26.1507 31.8046 26.3427C31.9966 26.5267 32.0926 26.8027 32.0926 27.1707V31.0467C32.0926 31.6627 32.2286 32.1267 32.5006 32.4387C32.7726 32.7507 33.1686 32.9067 33.6886 32.9067C34.2006 32.9067 34.5926 32.7507 34.8646 32.4387C35.1366 32.1267 35.2726 31.6627 35.2726 31.0467V27.1707C35.2726 26.8027 35.3646 26.5267 35.5486 26.3427C35.7406 26.1507 36.0126 26.0547 36.3646 26.0547C36.7166 26.0547 36.9846 26.1507 37.1686 26.3427C37.3526 26.5267 37.4446 26.8027 37.4446 27.1707V31.0227C37.4446 31.8467 37.3006 32.5387 37.0126 33.0987C36.7326 33.6507 36.3126 34.0667 35.7526 34.3467C35.1926 34.6187 34.5046 34.7547 33.6886 34.7547Z" fill="#FF4D00"/>
<path fill-rule="evenodd" clip-rule="evenodd" d="M23.0139 10.0876C23.0175 10.0733 23.0183 10.065 23.0183 10.0547C23.0183 10.0443 23.0175 10.0361 23.0139 10.0218C23.0098 10.006 22.9978 9.96603 22.9636 9.90144C22.8936 9.76905 22.7223 9.52076 22.3596 9.23057C21.6124 8.63282 20.2809 8.05469 18.5183 8.05469C16.7557 8.05469 15.4242 8.63282 14.677 9.23057C14.3143 9.52076 14.143 9.76905 14.073 9.90144C14.0388 9.96603 14.0268 10.006 14.0227 10.0218C14.0191 10.0361 14.0183 10.0443 14.0183 10.0547C14.0183 10.065 14.0191 10.0733 14.0227 10.0876C14.0268 10.1034 14.0388 10.1433 14.073 10.2079C14.143 10.3403 14.3143 10.5886 14.677 10.8788C15.4242 11.4766 16.7557 12.0547 18.5183 12.0547C20.2809 12.0547 21.6124 11.4766 22.3596 10.8788C22.7223 10.5886 22.8936 10.3403 22.9636 10.2079C22.9978 10.1433 23.0098 10.1034 23.0139 10.0876ZM18.5183 20.0547C25.4219 20.0547 31.0183 15.5775 31.0183 10.0547C31.0183 4.53184 25.4219 0.0546875 18.5183 0.0546875C11.6148 0.0546875 6.01831 4.53184 6.01831 10.0547C6.01831 15.5775 11.6148 20.0547 18.5183 20.0547Z" fill="#FF4D00"/>
</svg>
