<svg width="40" height="40" viewBox="0 0 40 40" fill="none" xmlns="http://www.w3.org/2000/svg">
<path d="M36.6667 14.77C36.6724 17.3346 35.6844 19.8017 33.91 21.6533C29.8417 25.8717 25.895 30.27 21.6767 34.3333C20.7083 35.25 19.1733 35.2167 18.2483 34.2583L6.08999 21.655C2.41499 17.845 2.41499 11.695 6.08999 7.88667C6.95856 6.975 8.00322 6.2492 9.16064 5.75329C10.3181 5.25737 11.5641 5.00167 12.8233 5.00167C14.0825 5.00167 15.3286 5.25737 16.486 5.75329C17.6434 6.2492 18.6881 6.975 19.5567 7.88667L20 8.34333L20.4417 7.88667C21.312 6.97716 22.3569 6.25269 23.5139 5.75667C24.6709 5.26065 25.9162 5.00329 27.175 5C29.7083 5 32.13 6.04 33.9083 7.88667C35.6833 9.73807 36.672 12.2052 36.6667 14.77Z" stroke="white" stroke-width="4.16667" stroke-linejoin="round"/>
</svg>
