<svg width="98" height="43" viewBox="0 0 98 43" fill="none" xmlns="http://www.w3.org/2000/svg">
<path d="M69.8654 25.092C69.686 25.193 69.5191 25.2944 69.3648 25.396C68.2041 26.1661 67.8223 27.133 68.2194 28.2969C68.5381 29.2307 69.1802 29.7699 70.1458 29.9144C71.1114 30.059 72.5042 29.9208 74.324 29.4998C74.4337 29.8694 74.5527 30.266 74.6809 30.6898C74.8092 31.1135 74.9541 31.5622 75.1157 32.0358C75.5637 33.3485 76.0072 34.4326 76.4464 35.2882C76.896 36.126 77.3911 36.7138 77.9317 37.0515C78.4724 37.3893 79.1161 37.4536 79.8628 37.2444C80.9829 36.9305 81.5829 36.2434 81.6629 35.1831C81.7382 34.1093 81.4226 32.5371 80.716 30.4665C80.5544 29.9928 80.3945 29.5483 80.2364 29.133C80.0783 28.7177 79.922 28.3315 79.7675 27.9745C81.5169 27.3953 82.7451 26.799 83.4521 26.1857C84.1695 25.5548 84.3711 24.7791 84.0571 23.8589C83.6599 22.695 82.72 22.0984 81.2374 22.0691C80.9703 22.063 80.6836 22.0697 80.3775 22.0892L76.0617 26.8827L69.8654 25.092Z" fill="#FF4D00"/>
<path d="M62.4141 13.0317C62.2563 12.9197 62.0975 12.8248 61.9376 12.7468C61.4146 12.4775 60.8201 12.4209 60.1541 12.577C59.4915 12.7133 58.7103 13.0758 57.8103 13.6644C56.8851 14.2696 56.3702 14.8334 56.2658 15.3559C56.1523 15.8669 56.2694 16.3406 56.617 16.7771C57.0287 17.2939 57.5676 17.4743 58.2336 17.3182C58.8905 17.1506 59.6436 16.7891 60.4929 16.2336C60.5386 16.2911 60.5375 16.4228 60.4896 16.6288C60.4416 16.8349 60.313 17.085 60.1039 17.379C59.8982 17.6533 59.5799 17.9313 59.1489 18.2132C58.718 18.4951 58.2483 18.68 57.74 18.7679C57.2443 18.8475 56.7543 18.8011 56.27 18.6287C55.7857 18.4563 55.3469 18.1232 54.9535 17.6293C54.2856 16.7908 54.0142 15.99 54.139 15.227C54.2766 14.4558 54.7573 13.8007 55.5812 13.2618C56.0121 12.98 56.3864 12.7963 56.7039 12.7109C57.0215 12.6255 57.3373 12.55 57.6513 12.4844C57.9688 12.399 58.3431 12.2154 58.774 11.9335C59.1163 11.7097 59.4001 11.4367 59.6255 11.1146C59.8635 10.7842 59.9696 10.4091 59.9437 9.98928C59.9305 9.5612 59.718 9.08872 59.3064 8.57184C58.9221 8.08943 58.3488 7.75688 57.5864 7.57421C56.824 7.39154 55.9528 7.41107 54.9727 7.63281C53.9835 7.84307 52.9565 8.29639 51.8918 8.99276C51.0806 9.52333 50.3763 10.1761 49.7791 10.9511C49.1726 11.7146 48.7457 12.5703 48.4983 13.5183C48.2417 14.4547 48.2308 15.4576 48.4656 16.5269C48.7039 17.5765 49.2667 18.6583 50.1541 19.7725C51.0781 20.9326 52.143 21.7734 53.3488 22.295C54.5582 22.7967 55.8511 22.9556 57.2275 22.7716C58.5043 22.5831 59.7982 22.0843 61.109 21.2753L62.4141 13.0317Z" fill="#FF4D00"/>
<path d="M30.7953 21.3247C31.0468 21.7596 31.4052 22.0381 31.8706 22.1604C32.5162 22.3301 33.0595 22.3107 33.5006 22.1021C33.9461 21.88 34.3256 21.5077 34.6393 20.9855C34.9679 20.4671 35.2639 19.8222 35.5271 19.0507C35.7946 18.2656 36.0711 17.4017 36.3566 16.459C36.4474 17.2941 36.5232 18.1252 36.584 18.9524C36.6447 19.7795 36.7476 20.5514 36.8926 21.268C37.057 21.9749 37.3034 22.578 37.6319 23.0773C37.9797 23.5669 38.4764 23.8966 39.122 24.0663C39.8426 24.2557 40.5126 24.2474 41.1319 24.0414C41.7662 23.8394 42.3528 23.5069 42.8916 23.0438C43.4305 22.5807 43.9117 22.0434 44.3352 21.432C44.7588 20.8207 45.1223 20.1935 45.4257 19.5505C45.7291 18.9076 45.9701 18.3072 46.1487 17.7494C46.3707 17.0556 46.5608 16.3091 46.7189 15.5099C46.8921 14.7147 46.9749 13.9474 46.9674 13.208C46.9643 12.455 46.8147 11.8036 46.5187 11.2538C46.2376 10.708 45.7443 10.3423 45.0387 10.1569C44.213 9.93984 43.4835 10.0578 42.8502 10.5109C42.2169 10.9639 41.6706 11.6536 41.2113 12.5801C40.7714 13.4969 40.3942 14.5482 40.0798 15.734C39.9938 14.7822 39.9151 13.884 39.8437 13.0392C39.7723 12.1945 39.6575 11.4343 39.4994 10.7585C39.3457 10.0692 39.1034 9.50401 38.7726 9.06307C38.461 8.61246 38.02 8.31219 37.4495 8.16225C36.6238 7.94523 35.8786 7.98535 35.2138 8.28259C34.549 8.57984 33.9554 9.03592 33.4331 9.65085C32.9151 10.2522 32.4719 10.9248 32.1036 11.6687C31.7353 12.4126 31.4401 13.1314 31.2181 13.8253C31.0439 14.3695 30.878 14.9896 30.7203 15.6856C30.567 16.368 30.4512 17.0603 30.373 17.7624C30.3098 18.4685 30.3015 19.1301 30.3482 19.747C30.4098 20.368 30.5589 20.8939 30.7953 21.3247Z" fill="#FF4D00"/>
<path d="M8.88802 24.7711C8.26078 24.9469 7.72001 24.9205 7.26569 24.6919C6.80675 24.4499 6.41025 24.0791 6.07619 23.5796C5.7375 23.0666 5.44009 22.4827 5.18393 21.828C4.92778 21.1732 4.68656 20.5143 4.46027 19.8512L4.03079 18.5926C3.86562 18.0606 3.69068 17.524 3.50595 16.9826C3.33155 16.4236 3.18023 15.9322 3.052 15.5085C2.91916 15.0713 2.8325 14.7693 2.79201 14.6028C2.48938 13.62 2.43862 12.752 2.63972 11.9988C2.84083 11.2456 3.35207 10.7539 4.17345 10.5237C5.1143 10.26 5.88347 10.4523 6.48095 11.1003C7.08874 11.7307 7.62816 12.736 8.0992 14.1164L8.30702 14.7254C8.42913 14.1722 8.59713 13.5617 8.81101 12.8939C9.03983 12.2219 9.31521 11.5664 9.63717 10.9276C9.95913 10.2888 10.3433 9.73631 10.7896 9.27021C11.2314 8.79058 11.736 8.47125 12.3035 8.31223C13.0054 8.11554 13.6635 8.19802 14.2777 8.55967C14.9023 8.9036 15.3347 9.42742 15.5748 10.1311C15.7919 10.7672 15.7952 11.4483 15.5849 12.1745C15.3849 12.8829 15.0096 13.5812 14.459 14.2692C13.9084 14.9573 13.2083 15.5909 12.3587 16.17C12.9898 16.2452 13.6445 16.3657 14.3228 16.5315C14.9965 16.6837 15.6318 16.8912 16.2287 17.1539C16.8359 17.3989 17.3576 17.705 17.7937 18.072C18.2299 18.4391 18.5357 18.8798 18.7112 19.3941C18.9052 19.9624 18.9352 20.4581 18.8014 20.8811C18.6825 21.3 18.4567 21.645 18.1238 21.9162C17.7909 22.1874 17.4079 22.3837 16.9749 22.505C16.2132 22.7184 15.4276 22.6939 14.6181 22.4315C13.8086 22.169 12.9978 21.7587 12.1855 21.2004C11.3882 20.638 10.6167 20.0313 9.87092 19.3803C10.0741 19.9758 10.2405 20.5593 10.3701 21.1309C10.5147 21.6983 10.581 22.2283 10.5691 22.7209C10.5572 23.2136 10.4234 23.6366 10.1677 23.9899C9.91194 24.3433 9.48538 24.6037 8.88802 24.7711Z" fill="#FF4D00"/>
<path fill-rule="evenodd" clip-rule="evenodd" d="M9.8195 41.2117C8.37089 41.6176 7.18171 41.8248 6.25196 41.8333C5.31758 41.8282 4.55874 41.6183 3.97541 41.2035C3.39208 40.7887 2.88829 40.1514 2.46402 39.2917C2.03976 38.432 1.60365 37.3458 1.15569 36.0331C0.707741 34.7204 0.37902 33.5893 0.16953 32.6397C-0.0296436 31.6725 -0.0320662 30.8502 0.162262 30.1731C0.366907 29.4781 0.843514 28.8849 1.59208 28.3935C2.35097 27.8843 3.45471 27.4267 4.90333 27.0208C5.51562 26.8492 6.20044 26.7463 6.95776 26.712C7.71046 26.6641 8.48802 26.7131 9.29045 26.859C10.0929 27.0048 10.8673 27.2845 11.6139 27.698C12.3753 28.1074 13.0589 28.672 13.6645 29.392C14.2851 30.1077 14.7847 31.0204 15.1634 32.1301C15.5282 33.1993 15.6653 34.1765 15.5748 35.0618C15.4945 35.9295 15.263 36.7135 14.8802 37.4138C14.5078 38.0965 14.0335 38.6964 13.4573 39.2137C12.8766 39.7175 12.2681 40.14 11.6319 40.4814C10.9911 40.8092 10.387 41.0527 9.8195 41.2117ZM7.21146 38.0281C8.65005 37.8326 9.66242 37.371 10.2486 36.6433C10.8497 35.9114 10.9724 35.0245 10.6168 33.9824C10.2936 33.0351 9.66744 32.447 8.73847 32.218C7.81982 31.9713 6.70584 32.1352 5.39656 32.7096L7.21146 38.0281Z" fill="#FF4D00"/>
<path fill-rule="evenodd" clip-rule="evenodd" d="M22.2668 25.3467C21.2536 25.5447 20.3111 25.9316 19.4393 26.5073C18.551 27.111 17.833 27.8224 17.2852 28.6417C16.7336 29.4807 16.3699 30.3642 16.194 31.2921C16.0271 32.2316 16.062 33.1721 16.2985 34.1134C16.5223 35.0629 16.9718 35.9459 17.6469 36.7624C18.3364 37.6218 19.1486 38.3072 20.0834 38.8186C21.0055 39.3381 21.9786 39.6776 23.0026 39.837C24.0357 40.0079 25.0588 39.9944 26.0721 39.7964C27.0853 39.5984 28.0279 39.2116 28.8996 38.6358C29.8187 38.0471 30.5476 37.3374 31.0864 36.5066C31.6342 35.6873 31.9916 34.8079 32.1585 33.8684C32.3253 32.9289 32.2905 31.9885 32.0539 31.0471C31.8174 30.1058 31.3679 29.2228 30.7055 28.3981C30.0033 27.5469 29.1911 26.8615 28.269 26.342C27.3469 25.8224 26.3693 25.4771 25.3363 25.3062C24.3032 25.1352 23.2801 25.1488 22.2668 25.3467ZM20.9797 31.4272C21.1123 30.7872 21.4593 30.2874 22.021 29.9276C22.5827 29.5679 23.2185 29.4382 23.9285 29.5385C24.6384 29.6388 25.2415 30.0071 25.7378 30.6433C26.2431 31.2911 26.4294 31.935 26.2969 32.575C26.1644 33.2149 25.8173 33.7148 25.2556 34.0745C24.694 34.4343 24.0582 34.564 23.3482 34.4637C22.6382 34.3633 22.0306 33.9893 21.5253 33.3415C21.0163 32.7135 20.8344 32.0754 20.9797 31.4272Z" fill="#FF4D00"/>
<path d="M39.5448 41.9861C39.0818 42.1158 38.6134 42.0617 38.1395 41.8238C37.6806 41.5817 37.237 41.2168 36.8087 40.7289C36.3953 40.2368 36.0009 39.6801 35.6252 39.0588C35.2645 38.4334 34.9412 37.7974 34.6552 37.1511C34.3645 36.4911 34.1268 35.8905 33.9421 35.3492C33.7066 34.659 33.517 33.9115 33.3732 33.1066C33.2294 32.3018 33.1914 31.5191 33.2592 30.7588C33.3224 29.9849 33.5414 29.3082 33.9163 28.7287C34.2913 28.1491 34.8894 27.7443 35.7108 27.5141C36.2783 27.3551 36.8288 27.3862 37.3624 27.6073C37.9064 27.8108 38.4517 28.1621 38.9983 28.6613C39.5404 29.147 40.0976 29.7248 40.6698 30.3948C41.242 31.0647 41.8528 31.7758 42.5022 32.5279C42.0453 31.3808 41.7224 30.3148 41.5335 29.3298C41.355 28.3271 41.3928 27.4788 41.6468 26.7849C41.9009 26.0909 42.4386 25.6289 43.26 25.3987C43.9619 25.202 44.5958 25.2616 45.1617 25.5775C45.7426 25.8892 46.2628 26.3588 46.7224 26.9862C47.1773 27.6001 47.5737 28.2822 47.9116 29.0327C48.2644 29.779 48.5586 30.4972 48.7941 31.1874C48.9835 31.7422 49.1465 32.3638 49.2831 33.052C49.4198 33.7403 49.4968 34.4452 49.514 35.1669C49.5312 35.8886 49.4552 36.5771 49.2862 37.2324C49.1171 37.8877 48.8289 38.4578 48.4217 38.9426C48.0294 39.4232 47.4748 39.7639 46.758 39.9648C46.1158 40.1447 45.5009 40.1169 44.9132 39.8812C44.3359 39.6278 43.7641 39.2469 43.1979 38.7383C42.642 38.212 42.0877 37.6186 41.535 36.958C40.9823 36.2973 40.4147 35.6409 39.8322 34.9887C40.1658 35.9183 40.459 36.7776 40.7119 37.5667C40.9602 38.3423 41.1044 39.0284 41.1444 39.6251C41.1993 40.2176 41.1081 40.7177 40.8709 41.1252C40.629 41.5192 40.1869 41.8061 39.5448 41.9861Z" fill="#FF4D00"/>
<path d="M53.5253 38.9468C54.3689 39.6325 55.4469 40.1623 56.7592 40.5361C58.0715 40.9099 59.29 41.0343 60.4149 40.9093C61.5397 40.7842 62.5521 40.4638 63.452 39.948C64.3668 39.4365 65.143 38.7815 65.7804 37.983C66.4226 37.1711 66.9147 36.2719 67.2569 35.2854C67.4491 34.7313 67.6283 34.1439 67.7945 33.523C67.9654 32.8887 68.0845 32.2618 68.1519 31.6425C68.2192 31.0232 68.2007 30.4389 68.0964 29.8894C68.0069 29.3442 67.8027 28.8703 67.4836 28.4676C67.1644 28.0648 66.6917 27.7743 66.0654 27.5959C65.275 27.3707 64.6023 27.3499 64.0471 27.5332C63.4966 27.7031 63.0522 27.9923 62.7138 28.4007C62.3755 28.8092 62.122 29.2567 61.9532 29.7432C61.761 30.2972 61.6291 30.772 61.5575 31.1673C61.4859 31.5627 61.4167 31.9513 61.3497 32.3332C61.2875 32.7015 61.165 33.1492 60.9822 33.6762C60.8603 34.0276 60.689 34.3797 60.4683 34.7326C60.2475 35.0855 59.9733 35.3563 59.6457 35.5451C59.3227 35.7204 58.9301 35.7422 58.4678 35.6105C58.0204 35.483 57.7196 35.2637 57.5654 34.9525C57.4159 34.6278 57.3545 34.2614 57.3814 33.8533C57.4232 33.4494 57.505 33.0718 57.6269 32.7204C57.8097 32.1934 57.9919 31.7627 58.1734 31.4284C58.3596 31.0805 58.5482 30.7259 58.7391 30.3645C58.93 30.0031 59.1215 29.5454 59.3137 28.9913C59.4825 28.5048 59.5571 28.0064 59.5375 27.496C59.5179 26.9855 59.336 26.5179 58.9918 26.0932C58.6671 25.6592 58.1022 25.3275 57.2969 25.0981C56.6706 24.9197 56.0994 24.9129 55.5834 25.0778C55.0674 25.2426 54.5932 25.5233 54.1607 25.9198C53.7431 26.3206 53.3664 26.7924 53.0307 27.3352C52.6949 27.8781 52.3968 28.4539 52.1364 29.0628C51.8808 29.6582 51.6568 30.2329 51.4646 30.7869C51.1224 31.7734 50.9583 32.7661 50.9723 33.7649C50.991 34.7503 51.2066 35.6877 51.619 36.5773C52.0463 37.4712 52.6817 38.261 53.5253 38.9468Z" fill="#FF4D00"/>
<path d="M86.1353 39.2168C86.8309 39.4736 87.548 39.662 88.2866 39.782C90.1945 40.0918 91.7364 40.004 92.9123 39.5186C94.1064 39.0217 94.8206 38.1807 95.055 36.9955C95.2507 36.0055 95.054 35.1533 94.4648 34.4388C93.8783 33.7104 92.9445 33.0119 91.6633 32.3433C91.3188 32.1578 90.9884 31.9819 90.6719 31.8153C90.3736 31.6374 90.2451 31.4438 90.2865 31.2347C90.3306 31.0116 90.456 30.8593 90.6627 30.7777C90.8694 30.6961 91.0651 30.6703 91.2497 30.7003C91.5728 30.7528 91.8058 30.8194 91.9487 30.9002C92.1069 30.9834 92.2483 31.0712 92.373 31.1634C92.5159 31.2441 92.7126 31.3336 92.9631 31.4319C93.2137 31.5301 93.6005 31.6217 94.1237 31.7067C94.4776 31.7642 94.8543 31.7462 95.2539 31.6528C95.6689 31.5619 96.0326 31.3691 96.345 31.0744C96.6727 30.7823 96.8917 30.3573 97.002 29.7996C97.1371 29.1164 96.9801 28.4649 96.531 27.8451C96.1 27.2138 95.4469 26.6617 94.5717 26.1885C93.6965 25.7154 92.682 25.3852 91.5279 25.1978C90.3278 25.0029 89.2003 25.0428 88.1454 25.3177C87.0906 25.5925 86.2082 26.0392 85.4983 26.6579C84.7883 27.2766 84.352 27.9972 84.1893 28.8199C84.0294 29.6286 84.0545 30.345 84.2646 30.9691C84.4774 31.5793 84.9818 32.2009 85.7777 32.8338C86.3144 33.252 86.8404 33.6036 87.3557 33.8888C87.8738 34.16 88.296 34.3941 88.6223 34.591C88.9486 34.7879 89.0938 34.9769 89.058 35.1582C88.9863 35.5207 88.6966 35.6608 88.1888 35.5783C87.8657 35.5258 87.5717 35.4061 87.307 35.2192C87.0603 35.0209 86.7816 34.8245 86.4706 34.6301C86.1624 34.4218 85.7468 34.2751 85.2236 34.1902C84.6543 34.0977 84.1365 34.1863 83.6703 34.456C83.2222 34.7142 82.9403 35.1361 82.8245 35.7218C82.7307 36.1958 82.8159 36.6486 83.0799 37.08C83.3594 37.514 83.7653 37.9109 84.2976 38.2707C84.8299 38.6306 85.4425 38.9459 86.1353 39.2168Z" fill="#FF4D00"/>
<path d="M24.6317 23.4609C24.0866 23.5043 23.5331 23.5412 22.9712 23.5716C22.4079 23.588 21.8872 23.5583 21.4091 23.4825C20.931 23.4068 20.531 23.2466 20.2092 23.002C19.9029 22.7562 19.7266 22.3934 19.6801 21.9136C19.62 21.2928 19.8112 20.8367 20.2538 20.5456C20.695 20.2403 21.2463 20.0187 21.9077 19.8808C21.8131 19.3907 21.7301 18.8569 21.6585 18.2796C21.5855 17.6882 21.5162 17.0538 21.4506 16.3765C21.3905 15.7556 21.3416 15.1693 21.3039 14.6178C21.2648 14.0521 21.2383 13.5352 21.2243 13.067C20.4219 13.0455 19.719 12.9165 19.1155 12.6801C18.5276 12.4425 18.1988 11.9638 18.1291 11.2442C18.0772 10.7079 18.1933 10.2863 18.4774 9.97934C18.7601 9.65824 19.153 9.42082 19.6559 9.26707C20.1731 9.09797 20.7339 8.97516 21.3385 8.89865C21.9587 8.82089 22.5724 8.75787 23.1797 8.70958C23.787 8.66129 24.4035 8.62649 25.0291 8.60519C25.6547 8.58388 26.2306 8.61629 26.7568 8.70243C27.2816 8.77446 27.714 8.94626 28.0542 9.21783C28.4085 9.47405 28.6117 9.87027 28.6636 10.4065C28.71 10.8863 28.6146 11.2778 28.3772 11.5811C28.1398 11.8843 27.8021 12.1245 27.3642 12.3015C26.9249 12.4644 26.4433 12.5951 25.9193 12.6937C26.0111 13.1556 26.0914 13.6612 26.1603 14.2103C26.2292 14.7594 26.2943 15.3514 26.3558 15.9864C26.4214 16.6637 26.4673 17.3 26.4936 17.8951C26.534 18.4749 26.5548 19.0136 26.5559 19.5112C27.2635 19.5261 27.8716 19.6483 28.3803 19.8781C28.9032 20.0924 29.1954 20.5171 29.2569 21.1521C29.3034 21.6319 29.1916 22.0176 28.9217 22.3093C28.6674 22.5997 28.3043 22.8205 27.8325 22.9718C27.3763 23.1218 26.8692 23.2332 26.3114 23.306C25.7522 23.3647 25.1923 23.4163 24.6317 23.4609Z" fill="#FF4D00"/>
<path d="M75.3412 24.8001L63.1968 21.2905L65.0968 9.28966L68.6462 15.1145L78.1601 2.56314L76.8952 17.6523L83.8198 15.3832L75.3412 24.8001Z" fill="#1ADED2"/>
</svg>
