<svg width="40" height="41" viewBox="0 0 40 41" fill="none" xmlns="http://www.w3.org/2000/svg">
<path d="M23.7866 17.6414L29.9999 3.56641M15.5266 17.9531L8.33325 3.56641M21.2683 16.9797L14.7249 3.56641M23.9333 3.56641L22.1999 7.73307M9.99992 26.8997C9.99992 29.5519 11.0535 32.0954 12.9289 33.9708C14.8042 35.8462 17.3478 36.8997 19.9999 36.8997C22.6521 36.8997 25.1956 35.8462 27.071 33.9708C28.9464 32.0954 29.9999 29.5519 29.9999 26.8997C29.9999 24.2476 28.9464 21.704 27.071 19.8287C25.1956 17.9533 22.6521 16.8997 19.9999 16.8997C17.3478 16.8997 14.8042 17.9533 12.9289 19.8287C11.0535 21.704 9.99992 24.2476 9.99992 26.8997Z" stroke="white" stroke-width="4.16667" stroke-linecap="round" stroke-linejoin="round"/>
</svg>
