<svg width="40" height="40" viewBox="0 0 40 40" fill="none" xmlns="http://www.w3.org/2000/svg">
<path d="M27.4533 33.3333H6.83325C6.56804 33.3333 6.31368 33.2279 6.12615 33.0404C5.93861 32.8528 5.83325 32.5985 5.83325 32.3333V15.9999C5.83325 15.7347 5.93861 15.4804 6.12615 15.2928C6.31368 15.1053 6.56804 14.9999 6.83325 14.9999H11.4466C12.0222 14.9999 12.588 14.8509 13.0889 14.5673C13.5898 14.2837 14.0088 13.8752 14.3049 13.3816L18.8216 5.85326C19.1622 5.28468 19.6989 4.86015 20.3306 4.65952C20.9623 4.45888 21.6456 4.49596 22.2519 4.76379C22.8581 5.03161 23.3457 5.51172 23.6228 6.11383C23.8999 6.71593 23.9475 7.39854 23.7566 8.03326L22.0533 13.7133C22.0086 13.8624 21.9994 14.02 22.0264 14.1733C22.0534 14.3267 22.1159 14.4716 22.2088 14.5966C22.3017 14.7216 22.4225 14.8231 22.5616 14.8931C22.7007 14.9631 22.8542 14.9997 23.0099 14.9999H30.6349C31.1475 14.9998 31.6532 15.1179 32.1127 15.3451C32.5722 15.5722 32.9731 15.9022 33.2843 16.3095C33.5955 16.7168 33.8086 17.1904 33.9069 17.6934C34.0053 18.1965 33.9864 18.7154 33.8516 19.2099L30.6682 30.8766C30.476 31.5817 30.0574 32.2041 29.4768 32.648C28.8962 33.0919 28.1841 33.3327 27.4533 33.3333Z" stroke="white" stroke-width="4.16667" stroke-linecap="round"/>
<path d="M11.6667 33.3333V15" stroke="white" stroke-width="4.16667" stroke-linecap="round" stroke-linejoin="round"/>
</svg>
